# xmcd
#
# Track frame offsets: 
#        183
#        20385
#        38320
#        57378
#        75385
#        88728
#        110908
#        127378
#        143018
#        158008
#        173418
#        195060
#
# Disc length: 2771 seconds
#
# Revision: 0
# Processed by: cddbd v1.5.1PL0 Copyright (c) Steve Scherf et al.
# Submitted via: ExactAudioCopy v0.95a5
#
DISCID=8c0ad10c
DTITLE=Maura O'Connell - Always
DYEAR=1989
DGENRE=Blues
TTITLE0='Till The Right One Comes Along
TTITLE1=Maggie
TTITLE2=Feet Of A Dancer
TTITLE3=Cast A Long Shadow
TTITLE4=The Scholar
TTITLE5=Mystic Lipstick
TTITLE6=My Irish Molly O
TTITLE7=If You Love Me
TTITLE8=Living In These Troubled Times
TTITLE9=Trouble In The Fields
TTITLE10=The Parting
TTITLE11=Always
EXTD=
EXTT0=
EXTT1=
EXTT2=
EXTT3=
EXTT4=
EXTT5=
EXTT6=
EXTT7=
EXTT8=
EXTT9=
EXTT10=
EXTT11=
PLAYORDER=
